<?xml version="1.0" encoding="UTF-8"?>
<svg xmlns="http://www.w3.org/2000/svg" xmlns:cc="http://creativecommons.org/ns#" xmlns:dc="http://purl.org/dc/elements/1.1/" xmlns:rdf="http://www.w3.org/1999/02/22-rdf-syntax-ns#" xmlns:svg="http://www.w3.org/2000/svg" version="1.1" viewBox="0 0 100 100" xml:space="preserve" x="0px" y="0px">
  <path d="M 78.3125,5 C 77.974234,5 77.66545,5.1157995 77.40625,5.375 L 69,13.78125 l 7.65625,7.6875 8.40625,-8.4375 c 0.518401,-0.518401 0.518401,-1.325169 0,-1.84375 L 79.25,5.375 C 78.9908,5.1157995 78.650766,5 78.3125,5 z m -12.375,9.71875 c -0.338265,0 -0.6783,0.1158 -0.9375,0.375 L 43.75,36.375 c -0.518401,0.518401 -0.518401,1.356599 0,1.875 l 8.4375,8.4375 c 0.518401,0.518401 1.356599,0.518401 1.875,0 l 8.5,-8.5 c -1.024383,-1.357023 -1.179103,-3.440817 0.125,-4.6875 1.211222,-1.477083 3.484247,-1.446432 4.90625,-0.34375 l 7.75,-7.71875 c 0.518401,-0.518402 0.518401,-1.356599 0,-1.875 L 66.875,15.09375 c -0.2592,-0.2592 -0.599235,-0.375 -0.9375,-0.375 z m -0.625,18.625 c -0.662512,0 -1.30702,0.24452 -1.8125,0.75 -1.010959,1.010959 -1.010959,2.645291 0,3.65625 1.010959,1.010959 2.645291,1.010959 3.65625,0 1.010959,-1.010959 1.010959,-2.645291 0,-3.65625 -0.50548,-0.50548 -1.181238,-0.75 -1.84375,-0.75 z m 4.46875,0.9375 0,0.03125 c -0.30114,0.30114 -0.60493,0.573859 -0.90625,0.875 0.489241,2.226424 -1.658735,4.685281 -4,4.3125 -0.10854,-0.0072 -0.20828,-0.01361 -0.3125,-0.03125 l -0.625,0.625 c 4.69369,3.412807 7.6875,8.672598 7.6875,14.53125 0,10.2899 -9.240698,18.62536 -20.625,18.625 -5.08969,0 -9.774092,-1.671435 -13.375,-4.4375 l 10.78125,0 0,-6.28125 -33.84375,0 0,6.28125 11.6875,0 c 2.488145,3.535567 5.878812,6.497396 9.875,8.625 -5.181129,2.547186 -9.589013,6.4392 -12.75,11.21875 l 0,0.03125 53.75,0 0,-0.3125 C 74.107474,83.923951 70.01468,80.247145 65.21875,77.75 74.213548,73.224431 80.3125,64.585139 80.3125,54.625 c 0,-8.158336 -4.096417,-15.48896 -10.53125,-20.34375 z M 42.4375,40.34375 38.28125,44.5 c -0.518401,0.518401 -0.518401,1.356599 0,1.875 l 5.78125,5.78125 c 0.518581,0.518582 1.356599,0.518402 1.875,0 L 50.09375,48 42.4375,40.34375 z M 23.375,90.5625 l 0,4.15625 c 0.06516,0.09864 0.12108,0.183329 0.1875,0.28125 l 53.5625,0 0,-4.4375 -53.75,0 z" transform="translate(0,-5e-6)" style="" fill="#000000" fill-opacity="1" fill-rule="evenodd" />
</svg>
